<svg version="1.1"
	 xmlns="http://www.w3.org/2000/svg" xmlns:xlink="http://www.w3.org/1999/xlink" xmlns:a="http://ns.adobe.com/AdobeSVGViewerExtensions/3.0/"
	 x="0px" y="0px" width="1204.9px" height="190.9px" viewBox="0 0 1204.9 190.9" style="enable-background:new 0 0 1204.9 190.9;"
	 xml:space="preserve">
<style type="text/css">
	.st0{fill:#FFFFFF;}
	.st1{fill:url(#SVGID_1_);}
	.st2{fill:url(#SVGID_2_);}
	.st3{fill:url(#SVGID_3_);}
	.st4{fill:url(#SVGID_4_);}
	.st5{fill:url(#SVGID_5_);}
	.st6{fill:url(#SVGID_6_);}
	.st7{fill:url(#SVGID_7_);}
	.st8{fill:url(#SVGID_8_);}
	.st9{fill:url(#SVGID_9_);}
	.st10{fill:url(#SVGID_10_);}
	.st11{fill:url(#SVGID_11_);}
	.st12{fill:url(#SVGID_12_);}
</style>
<defs>
</defs>
<g>
	<path class="st0" d="M0,11.9c11.6-2.1,27.8-3.7,49.8-3.7c23.8,0,41.3,5,52.7,14.6c10.6,8.7,17.5,22.8,17.5,39.5
		c0,16.9-5.3,31-15.4,40.5c-13,13-33.4,19.1-56.4,19.1c-6.1,0-11.6-0.3-15.9-1.1V188H0V11.9z M32.3,95.1c4,1.1,9.3,1.3,15.9,1.3
		c24.4,0,39.2-11.9,39.2-32.8c0-19.9-13.8-30.4-36.3-30.4c-9,0-15.4,0.8-18.8,1.6V95.1z"/>
	<path class="st0" d="M275.9,188l-2.1-14.3H273c-7.9,10.1-21.4,17.2-38.1,17.2c-25.9,0-40.5-18.8-40.5-38.4
		c0-32.6,28.9-49,76.5-48.7v-2.1c0-8.5-3.4-22.5-26.2-22.5c-12.7,0-25.9,4-34.7,9.5l-6.4-21.2c9.5-5.8,26.2-11.4,46.6-11.4
		c41.3,0,53.2,26.2,53.2,54.3V157c0,11.7,0.5,23,1.9,31H275.9z M271.6,125c-23-0.5-45,4.5-45,24.1c0,12.7,8.2,18.5,18.5,18.5
		c13,0,22.5-8.5,25.4-17.7c0.8-2.4,1.1-5,1.1-7.1V125z"/>
	<path class="st0" d="M368.3,22.2V59h31v24.4h-31v56.9c0,15.6,4.2,23.8,16.7,23.8c5.6,0,9.8-0.8,12.7-1.6l0.5,24.9
		c-4.8,1.9-13.2,3.2-23.6,3.2c-11.9,0-22-4-28.1-10.6c-6.9-7.4-10.1-19.1-10.1-36V83.4H318V59h18.5V29.9L368.3,22.2z"/>
	<path class="st0" d="M406.4,169.2l48.5-62c6.6-7.9,12.2-14.3,19.1-21.7V85h-62.8V59h102.5v19.9l-47.4,60.6
		c-6.4,7.7-12.4,15.1-19.1,22v0.5h68V188H406.4V169.2z"/>
	<path class="st0" d="M567.1,23c0,9.8-7.1,17.5-18.5,17.5c-10.9,0-18-7.7-18-17.5c0-10.1,7.4-17.7,18.3-17.7
		C560,5.3,566.9,13,567.1,23z M532.4,188V59h32.8V188H532.4z"/>
</g>
<g>
	<g>
		<linearGradient id="SVGID_1_" gradientUnits="userSpaceOnUse" x1="999.0519" y1="282.7259" x2="775.0672" y2="-105.227">
			<stop  offset="6.666706e-02" style="stop-color:#E274A5"/>
			<stop  offset="1" style="stop-color:#F8200B"/>
		</linearGradient>
		<path class="st1" d="M672.4,91.1c-7.1,21.7-13.5,43.4-18.3,64.6h-0.5c-4.8-21.7-10.6-42.6-17.5-65.1l-24.4-81h-35.5L634,188h37.3
			L733,9.5h-34.7L672.4,91.1z"/>
		<linearGradient id="SVGID_2_" gradientUnits="userSpaceOnUse" x1="999.0519" y1="282.7259" x2="775.0672" y2="-105.227">
			<stop  offset="6.666706e-02" style="stop-color:#E274A5"/>
			<stop  offset="1" style="stop-color:#F8200B"/>
		</linearGradient>
		<path class="st2" d="M756.3,5.3c-10.9,0-18.3,7.7-18.3,17.7c0,9.8,7.1,17.5,18,17.5c11.4,0,18.5-7.7,18.5-17.5
			C774.3,13,767.5,5.3,756.3,5.3z"/>
		<linearGradient id="SVGID_3_" gradientUnits="userSpaceOnUse" x1="999.0519" y1="282.7259" x2="775.0672" y2="-105.227">
			<stop  offset="6.666706e-02" style="stop-color:#E274A5"/>
			<stop  offset="1" style="stop-color:#F8200B"/>
		</linearGradient>
		<rect x="739.9" y="59" class="st3" width="32.8" height="128.9"/>
		<linearGradient id="SVGID_4_" gradientUnits="userSpaceOnUse" x1="999.0519" y1="282.7259" x2="775.0672" y2="-105.227">
			<stop  offset="6.666706e-02" style="stop-color:#E274A5"/>
			<stop  offset="1" style="stop-color:#F8200B"/>
		</linearGradient>
		<path class="st4" d="M921.3,0h-32.6v73.1h-0.5c-5.8-9.5-18.5-16.9-36.3-16.9c-31,0-58,25.7-57.7,68.8c0,39.7,24.4,65.9,55.1,65.9
			c18.8,0,34.4-9,42.1-23.3h0.5l1.3,20.4h29.1c-0.5-8.7-1.1-23-1.1-36.3V0z M888.7,132.1c0,3.4-0.3,6.6-1.1,9.5
			c-3.2,14-14.8,23-28.1,23c-20.7,0-32.3-17.2-32.3-40.8c0-24.1,11.7-42.6,32.6-42.6c14.8,0,25.2,10.3,28.1,23
			c0.5,2.6,0.8,5.8,0.8,8.5V132.1z"/>
		<linearGradient id="SVGID_5_" gradientUnits="userSpaceOnUse" x1="999.0519" y1="282.7259" x2="775.0672" y2="-105.227">
			<stop  offset="6.666706e-02" style="stop-color:#E274A5"/>
			<stop  offset="1" style="stop-color:#F8200B"/>
		</linearGradient>
		<path class="st5" d="M1005.8,56.1c-41.3,0-63,33.6-63,69.4c0,39.5,24.6,65.1,66.5,65.1c18.5,0,33.9-3.4,45-7.9l-4.8-22.5
			c-9.8,3.7-20.7,5.8-35.7,5.8c-20.7,0-38.9-10.1-39.7-33.4h86.3c0.5-2.9,1.1-7.7,1.1-13.8C1061.4,90.6,1047.6,56.1,1005.8,56.1z
			 M1030.6,109.9H974c1.3-13.2,9.8-31.5,29.9-31.5C1025.6,78.4,1030.9,98,1030.6,109.9z"/>
		<linearGradient id="SVGID_6_" gradientUnits="userSpaceOnUse" x1="999.0519" y1="282.7259" x2="775.0672" y2="-105.227">
			<stop  offset="6.666706e-02" style="stop-color:#E274A5"/>
			<stop  offset="1" style="stop-color:#F8200B"/>
		</linearGradient>
		<path class="st6" d="M1140.8,56.1c-38.9,0-66.7,25.9-66.7,68.3c0,41.3,28.1,66.5,64.6,66.5c32.8,0,66.2-21.2,66.2-68.6
			C1204.9,83.1,1179.2,56.1,1140.8,56.1z M1139.7,167.3c-19.9,0-32-18.8-32-43.7c0-21.4,9.3-43.7,32.3-43.7
			c22.2,0,31.2,23,31.2,43.2C1171.2,149.1,1158.3,167.3,1139.7,167.3z"/>
	</g>
</g>
<path class="st0" d="M188.3,161.2c-2.9,0.8-7.1,1.6-12.7,1.6c-12.4,0-15.6-8.5-15.6-24.1V94V81.8V5h-32.8v77.1V94v48.7
	c0,16.9,3.2,28.6,10.1,36c6.1,6.6,16.2,10.6,28.1,10.6c10.3,0,18.8-1.3,23.6-3.2L188.3,161.2z"/>
</svg>
